<svg xmlns="http://www.w3.org/2000/svg" width="32" height="32" id="website"><path style="line-height:normal;text-indent:0;text-align:start;text-decoration-line:none;text-decoration-style:solid;text-decoration-color:#000;text-transform:none;block-progression:tb;isolation:auto;mix-blend-mode:normal" fill="#2b4255" d="M-345.75 1193.361v1h10.516c-.247.55-.743 1-1.506 1h-9.166v1h9.166c1.48 0 2.74-1.091 2.74-2.5a.5.5 0 0 0-.5-.5h-11.25z" color="#000" font-family="sans-serif" font-weight="400" overflow="visible" transform="translate(366 -1168.362)"></path><path style="line-height:normal;text-indent:0;text-align:start;text-decoration-line:none;text-decoration-style:solid;text-decoration-color:#000;text-transform:none;block-progression:tb;isolation:auto;mix-blend-mode:normal" fill="#2b4255" d="M-351.285 1178.361a.5.5 0 1 0 0 1H-337v5a.5.5 0 1 0 1 0v-5.5a.5.5 0 0 0-.5-.5h-14.785zm14.777 7.494a.5.5 0 0 0-.492.506v1a.5.5 0 1 0 1 0v-1a.5.5 0 0 0-.508-.506zm0 3a.5.5 0 0 0-.492.506v4.5a.5.5 0 1 0 1 0v-4.5a.5.5 0 0 0-.508-.506z" color="#000" font-family="sans-serif" font-weight="400" overflow="visible" transform="translate(366 -1168.362)"></path><path style="line-height:normal;text-indent:0;text-align:start;text-decoration-line:none;text-decoration-style:solid;text-decoration-color:#000;text-transform:none;block-progression:tb;isolation:auto;mix-blend-mode:normal" fill="#f05542" fill-rule="evenodd" d="M-362.475 1192.451v3.19h1v-3.19h-1zm12.932 0v3.19h1v-3.19h-1z" color="#000" font-family="sans-serif" font-weight="400" overflow="visible" transform="translate(366 -1168.362)"></path><path fill="#f05542" d="M13.443 23.377a.6.587 0 0 1-.601.587.6.587 0 0 1-.6-.587.6.587 0 0 1 .6-.587.6.587 0 0 1 .6.587zm-.013 2.349a.588.575 0 0 1-.588.575.588.575 0 0 1-.588-.575.588.575 0 0 1 .588-.575.588.575 0 0 1 .588.575z"></path><path style="line-height:normal;text-indent:0;text-align:start;text-decoration-line:none;text-decoration-style:solid;text-decoration-color:#000;text-transform:none;block-progression:tb;isolation:auto;mix-blend-mode:normal" fill="#f05542" fill-rule="evenodd" d="M-356 1189.52v6.775h1v-6.775h-1z" color="#000" font-family="sans-serif" font-weight="400" overflow="visible" transform="translate(366 -1168.362)"></path><path style="line-height:normal;text-indent:0;text-align:start;text-decoration-line:none;text-decoration-style:solid;text-decoration-color:#000;text-transform:none;block-progression:tb;isolation:auto;mix-blend-mode:normal" fill="#f05542" fill-rule="evenodd" d="M-352.72 1185.297c-.012.017-.019.037-.03.055-.546.86-.833 1.818-1.914 2.719h.002l-1.186 1.076.674.74.9-.818 1.971.914h.004c.724.32 1.58-.293 1.477-1.084l-.006-.045-.016-.045s-.263-.807-.517-1.631c-.127-.412-.25-.829-.336-1.145a7.115 7.115 0 0 1-.11-.457s.072-.032-.044.207l-.87-.492zm.24 1.623c.056.19.103.359.164.557.243.79.47 1.48.496 1.56.002.042-.014.064-.075.037l-1.671-.775c.45-.487.843-.94 1.086-1.38z" color="#000" font-family="sans-serif" font-weight="400" overflow="visible" transform="translate(366 -1168.362)"></path><path style="line-height:normal;text-indent:0;text-align:start;text-decoration-line:none;text-decoration-style:solid;text-decoration-color:#000;text-transform:none;block-progression:tb;isolation:auto;mix-blend-mode:normal" fill="#f05542" fill-rule="evenodd" d="m-358.61 1183.822-1.394 5.047-.004.035c-.096.776.737 1.41 1.451 1.078h.004l1.864-.904.843.805.69-.725-1.182-1.125c-.748-.794-1.473-1.748-1.758-2.625l-.513-1.584zm.235 2.907c.314.547.616 1.085 1.03 1.556l-1.634.791c-.036.017-.037 0-.033-.043l.637-2.304z" color="#000" font-family="sans-serif" font-weight="400" overflow="visible" transform="translate(366 -1168.362)"></path><path style="line-height:normal;text-indent:0;text-align:start;text-decoration-line:none;text-decoration-style:solid;text-decoration-color:#000;text-transform:none;block-progression:tb;isolation:auto;mix-blend-mode:normal" fill="#f05542" fill-rule="evenodd" d="M-359.008 1182.865v2.455l-4.918 2.748a4.018 4.018 0 0 0-2.074 3.5v4.793h20.979v-4.886c0-1.391-.764-2.674-1.99-3.36l-5.003-2.795v-2.455h-1v3.041l5.514 3.082a2.85 2.85 0 0 1 1.479 2.487v3.886H-365v-3.793c0-1.084.592-2.084 1.562-2.627l5.43-3.035v-3.04h-1z" color="#000" font-family="sans-serif" font-weight="400" overflow="visible" transform="translate(366 -1168.362)"></path><path style="line-height:normal;text-indent:0;text-align:start;text-decoration-line:none;text-decoration-style:solid;text-decoration-color:#000;text-transform:none;block-progression:tb;isolation:auto;mix-blend-mode:normal" fill="#f05542" d="M-353.688 1171.865h-.464l-.032.463c-.01.142-.079.248-.248.361-.169.114-.43.195-.66.21h-2.246c-1.524 0-2.787 1.2-2.787 2.697v1.955c0 .068.004.1.004.025 0-.035-.004-.05-.004.025v2.637c0 2.47 2.078 4.457 4.615 4.457 2.538 0 4.616-1.986 4.616-4.457v-2.637c0-.057-.002-.055-.002-.021 0 0 0-.01 0 0 0 .027.002.044.002-.025v-2.897l-.004-.035c-.103-.747-.347-1.427-.811-1.941-.464-.514-1.157-.82-1.979-.816zm.176 1.067c.458.04.819.152 1.06.42.28.308.472.79.557 1.398v2.805c0-.062 0-.043-.002.022 0 .083.002.069.002.025v2.636c0 1.914-1.594 3.457-3.615 3.457-2.02 0-3.615-1.543-3.615-3.457v-2.636c0 .064.004.043.004-.023 0-.091-.004-.07-.004-.025v-1.955c0-.94.779-1.698 1.787-1.698h2.311a2.324 2.324 0 0 0 1.152-.377c.185-.124.237-.388.363-.591z" color="#000" font-family="sans-serif" font-weight="400" overflow="visible" transform="translate(366 -1168.362)"></path><path style="line-height:normal;text-indent:0;text-align:start;text-decoration-line:none;text-decoration-style:solid;text-decoration-color:#000;text-transform:none;block-progression:tb;isolation:auto;mix-blend-mode:normal" fill="#f05542" fill-rule="evenodd" d="M-357.475 1176.287a.5.5 0 0 0-.5.37c.02-.074-.056.095-.191.251a5.458 5.458 0 0 1-1.094.951c-.17.106-.333.131-.244.131a.5.5 0 1 0 0 1c.337 0 .536-.135.772-.281.235-.146.476-.332.705-.531.228-.2.443-.412.619-.616.024-.028.032-.062.054-.088.35.331.68.724 1.096.836.631.171 1.271.152 1.865.127.594-.024 1.146-.053 1.561.022.414.074.668.204.879.56a.5.5 0 1 0 .861-.507c-.365-.619-.971-.928-1.564-1.035-.593-.107-1.197-.061-1.776-.037-.578.024-1.126.025-1.566-.094-.44-.119-.776-.323-1.064-.813a.5.5 0 0 0-.413-.246z" color="#000" font-family="sans-serif" font-weight="400" overflow="visible" transform="translate(366 -1168.362)"></path></svg>